<svg width="14" height="15" viewBox="0 0 14 15" fill="none" xmlns="http://www.w3.org/2000/svg">
<path d="M1.09219 9.04685L0.398444 8.3531C0.104694 8.05935 0.104694 7.58435 0.398444 7.29373L6.47032 1.21873C6.76407 0.924976 7.23907 0.924976 7.52969 1.21873L13.6016 7.2906C13.8953 7.58435 13.8953 8.05935 13.6016 8.34998L12.9078 9.04373C12.6109 9.3406 12.1266 9.33435 11.8359 9.03123L8.25157 5.26873V14.25C8.25157 14.6656 7.91719 15 7.50157 15H6.50157C6.08594 15 5.75157 14.6656 5.75157 14.25V5.26873L2.16407 9.03435C1.87344 9.3406 1.38907 9.34685 1.09219 9.04685V9.04685Z" fill="black"/>
</svg>
