<svg width="15" height="15" viewBox="0 0 15 15" fill="none" xmlns="http://www.w3.org/2000/svg">
<path d="M14.6589 12C14.6589 12.3252 14.5451 12.6017 14.3174 12.8293L12.6589 14.4878C12.4313 14.7155 12.1548 14.8293 11.8296 14.8293C11.5044 14.8293 11.228 14.7155 11.0004 14.4878L7.415 10.9025L3.82963 14.4878C3.60199 14.7155 3.32557 14.8293 3.00037 14.8293C2.67516 14.8293 2.39874 14.7155 2.1711 14.4878L0.51256 12.8293C0.284918 12.6017 0.171097 12.3252 0.171097 12C0.171097 11.6748 0.284918 11.3984 0.51256 11.1708L4.09793 7.58539L0.51256 4.00003C0.284918 3.77239 0.171097 3.49596 0.171097 3.17076C0.171097 2.84556 0.284918 2.56913 0.51256 2.34149L2.1711 0.682955C2.39874 0.455313 2.67516 0.341492 3.00037 0.341492C3.32557 0.341492 3.60199 0.455313 3.82963 0.682955L7.415 4.26832L11.0004 0.682955C11.228 0.455313 11.5044 0.341492 11.8296 0.341492C12.1548 0.341492 12.4313 0.455313 12.6589 0.682955L14.3174 2.34149C14.5451 2.56913 14.6589 2.84556 14.6589 3.17076C14.6589 3.49596 14.5451 3.77239 14.3174 4.00003L10.7321 7.58539L14.3174 11.1708C14.5451 11.3984 14.6589 11.6748 14.6589 12Z" fill="black"/>
</svg>
