<svg width="18" height="12" viewBox="0 0 18 12" fill="none" xmlns="http://www.w3.org/2000/svg">
<path d="M18.0001 10C18.0001 11.1031 17.1032 12 16.0001 12H6.41575C5.8845 12 5.37512 11.7906 5.00012 11.4156L0.292997 6.70625C0.105466 6.51875 0.00012207 6.26562 0.00012207 6C0.00012207 5.73438 0.105497 5.48125 0.292997 5.29375L5.00012 0.585938C5.37512 0.210625 5.8845 0 6.41575 0H16.0001C17.1032 0 18.0001 0.895313 18.0001 2V10ZM8.46887 4.50313L9.94075 6L8.46887 7.46875C8.17825 7.7625 8.17825 8.2375 8.46887 8.50313C8.76262 8.82188 9.23762 8.82188 9.50325 8.50313L11.0001 7.05937L12.4689 8.50313C12.7626 8.82188 13.2376 8.82188 13.5032 8.50313C13.822 8.2375 13.822 7.7625 13.5032 7.46875L12.0595 6L13.5032 4.50313C13.822 4.2375 13.822 3.7625 13.5032 3.46875C13.2376 3.17812 12.7626 3.17812 12.4689 3.46875L11.0001 4.94063L9.50325 3.46875C9.23762 3.17812 8.76262 3.17812 8.46887 3.46875C8.17825 3.7625 8.17825 4.2375 8.46887 4.50313Z" fill="black"/>
</svg>
