<svg width="13" height="14" viewBox="0 0 13 14" fill="none" xmlns="http://www.w3.org/2000/svg">
<path d="M6.33333 3.66667C7.06971 3.66667 7.66667 3.06971 7.66667 2.33333C7.66667 1.59695 7.06971 1 6.33333 1C5.59695 1 5 1.59695 5 2.33333C5 3.06971 5.59695 3.66667 6.33333 3.66667Z" stroke="black" stroke-width="1.33333" stroke-linecap="round" stroke-linejoin="round"/>
<path d="M11.6667 12.3333L9 9.00001H6.33333V6.33334V3.76724M6.87437 6.33334H9.66667M3.66667 6.66668C3.189 6.86449 2.76389 7.17071 2.42495 7.56112C2.08601 7.95153 1.84253 8.41543 1.71376 8.91615C1.58499 9.41687 1.57446 9.94068 1.683 10.4462C1.79155 10.9517 2.01618 11.425 2.33916 11.8287C2.66213 12.2324 3.07459 12.5555 3.54392 12.7723C4.01326 12.9892 4.5266 13.0939 5.04337 13.0782C5.56014 13.0624 6.06618 12.9267 6.52147 12.6818C6.97676 12.4368 7.36882 12.0893 7.66667 11.6667" stroke="black" stroke-width="1.33333" stroke-linecap="round" stroke-linejoin="round"/>
</svg>
