<svg width="16" height="9" viewBox="0 0 16 9" fill="none" xmlns="http://www.w3.org/2000/svg">
<path d="M0 2C0 1.46957 0.210714 0.960859 0.585786 0.585786C0.960859 0.210714 1.46957 0 2 0H14C14.5304 0 15.0391 0.210714 15.4142 0.585786C15.7893 0.960859 16 1.46957 16 2V7C16 7.53043 15.7893 8.03914 15.4142 8.41421C15.0391 8.78929 14.5304 9 14 9H2C1.46957 9 0.960859 8.78929 0.585786 8.41421C0.210714 8.03914 0 7.53043 0 7V2ZM13 2.25V2.75C13 2.888 13.112 3 13.25 3H13.75C13.8163 3 13.8799 2.97366 13.9268 2.92678C13.9737 2.87989 14 2.8163 14 2.75V2.25C14 2.1837 13.9737 2.12011 13.9268 2.07322C13.8799 2.02634 13.8163 2 13.75 2H13.25C13.1837 2 13.1201 2.02634 13.0732 2.07322C13.0263 2.12011 13 2.1837 13 2.25ZM2.25 4C2.1837 4 2.12011 4.02634 2.07322 4.07322C2.02634 4.12011 2 4.1837 2 4.25V4.75C2 4.888 2.112 5 2.25 5H2.75C2.8163 5 2.87989 4.97366 2.92678 4.92678C2.97366 4.87989 3 4.8163 3 4.75V4.25C3 4.1837 2.97366 4.12011 2.92678 4.07322C2.87989 4.02634 2.8163 4 2.75 4H2.25ZM4 4.25V4.75C4 4.888 4.112 5 4.25 5H4.75C4.8163 5 4.87989 4.97366 4.92678 4.92678C4.97366 4.87989 5 4.8163 5 4.75V4.25C5 4.1837 4.97366 4.12011 4.92678 4.07322C4.87989 4.02634 4.8163 4 4.75 4H4.25C4.1837 4 4.12011 4.02634 4.07322 4.07322C4.02634 4.12011 4 4.1837 4 4.25ZM6.25 4C6.1837 4 6.12011 4.02634 6.07322 4.07322C6.02634 4.12011 6 4.1837 6 4.25V4.75C6 4.888 6.112 5 6.25 5H6.75C6.8163 5 6.87989 4.97366 6.92678 4.92678C6.97366 4.87989 7 4.8163 7 4.75V4.25C7 4.1837 6.97366 4.12011 6.92678 4.07322C6.87989 4.02634 6.8163 4 6.75 4H6.25ZM8 4.25V4.75C8 4.888 8.112 5 8.25 5H8.75C8.8163 5 8.87989 4.97366 8.92678 4.92678C8.97366 4.87989 9 4.8163 9 4.75V4.25C9 4.1837 8.97366 4.12011 8.92678 4.07322C8.87989 4.02634 8.8163 4 8.75 4H8.25C8.1837 4 8.12011 4.02634 8.07322 4.07322C8.02634 4.12011 8 4.1837 8 4.25V4.25ZM13.25 4C13.1837 4 13.1201 4.02634 13.0732 4.07322C13.0263 4.12011 13 4.1837 13 4.25V4.75C13 4.888 13.112 5 13.25 5H13.75C13.8163 5 13.8799 4.97366 13.9268 4.92678C13.9737 4.87989 14 4.8163 14 4.75V4.25C14 4.1837 13.9737 4.12011 13.9268 4.07322C13.8799 4.02634 13.8163 4 13.75 4H13.25ZM13.25 6C13.1837 6 13.1201 6.02634 13.0732 6.07322C13.0263 6.12011 13 6.1837 13 6.25V6.75C13 6.888 13.112 7 13.25 7H13.75C13.8163 7 13.8799 6.97366 13.9268 6.92678C13.9737 6.87989 14 6.8163 14 6.75V6.25C14 6.1837 13.9737 6.12011 13.9268 6.07322C13.8799 6.02634 13.8163 6 13.75 6H13.25ZM10.25 4C10.1837 4 10.1201 4.02634 10.0732 4.07322C10.0263 4.12011 10 4.1837 10 4.25V4.75C10 4.888 10.112 5 10.25 5H11.75C11.8163 5 11.8799 4.97366 11.9268 4.92678C11.9737 4.87989 12 4.8163 12 4.75V4.25C12 4.1837 11.9737 4.12011 11.9268 4.07322C11.8799 4.02634 11.8163 4 11.75 4H10.25ZM11 6.25V6.75C11 6.888 11.112 7 11.25 7H11.75C11.8163 7 11.8799 6.97366 11.9268 6.92678C11.9737 6.87989 12 6.8163 12 6.75V6.25C12 6.1837 11.9737 6.12011 11.9268 6.07322C11.8799 6.02634 11.8163 6 11.75 6H11.25C11.1837 6 11.1201 6.02634 11.0732 6.07322C11.0263 6.12011 11 6.1837 11 6.25ZM11.25 2C11.1837 2 11.1201 2.02634 11.0732 2.07322C11.0263 2.12011 11 2.1837 11 2.25V2.75C11 2.888 11.112 3 11.25 3H11.75C11.8163 3 11.8799 2.97366 11.9268 2.92678C11.9737 2.87989 12 2.8163 12 2.75V2.25C12 2.1837 11.9737 2.12011 11.9268 2.07322C11.8799 2.02634 11.8163 2 11.75 2H11.25ZM9 2.25V2.75C9 2.888 9.112 3 9.25 3H9.75C9.8163 3 9.87989 2.97366 9.92678 2.92678C9.97366 2.87989 10 2.8163 10 2.75V2.25C10 2.1837 9.97366 2.12011 9.92678 2.07322C9.87989 2.02634 9.8163 2 9.75 2H9.25C9.1837 2 9.12011 2.02634 9.07322 2.07322C9.02634 2.12011 9 2.1837 9 2.25ZM7.25 2C7.1837 2 7.12011 2.02634 7.07322 2.07322C7.02634 2.12011 7 2.1837 7 2.25V2.75C7 2.888 7.112 3 7.25 3H7.75C7.8163 3 7.87989 2.97366 7.92678 2.92678C7.97366 2.87989 8 2.8163 8 2.75V2.25C8 2.1837 7.97366 2.12011 7.92678 2.07322C7.87989 2.02634 7.8163 2 7.75 2H7.25ZM5 2.25V2.75C5 2.888 5.112 3 5.25 3H5.75C5.8163 3 5.87989 2.97366 5.92678 2.92678C5.97366 2.87989 6 2.8163 6 2.75V2.25C6 2.1837 5.97366 2.12011 5.92678 2.07322C5.87989 2.02634 5.8163 2 5.75 2H5.25C5.1837 2 5.12011 2.02634 5.07322 2.07322C5.02634 2.12011 5 2.1837 5 2.25ZM2.25 2C2.1837 2 2.12011 2.02634 2.07322 2.07322C2.02634 2.12011 2 2.1837 2 2.25V2.75C2 2.888 2.112 3 2.25 3H3.75C3.8163 3 3.87989 2.97366 3.92678 2.92678C3.97366 2.87989 4 2.8163 4 2.75V2.25C4 2.1837 3.97366 2.12011 3.92678 2.07322C3.87989 2.02634 3.8163 2 3.75 2H2.25ZM2 6.25V6.75C2 6.888 2.112 7 2.25 7H2.75C2.8163 7 2.87989 6.97366 2.92678 6.92678C2.97366 6.87989 3 6.8163 3 6.75V6.25C3 6.1837 2.97366 6.12011 2.92678 6.07322C2.87989 6.02634 2.8163 6 2.75 6H2.25C2.1837 6 2.12011 6.02634 2.07322 6.07322C2.02634 6.12011 2 6.1837 2 6.25ZM4.25 6C4.1837 6 4.12011 6.02634 4.07322 6.07322C4.02634 6.12011 4 6.1837 4 6.25V6.75C4 6.888 4.112 7 4.25 7H9.75C9.8163 7 9.87989 6.97366 9.92678 6.92678C9.97366 6.87989 10 6.8163 10 6.75V6.25C10 6.1837 9.97366 6.12011 9.92678 6.07322C9.87989 6.02634 9.8163 6 9.75 6H4.25Z" fill="black"/>
</svg>
