<svg id="XMLID_1_" xmlns="http://www.w3.org/2000/svg" width="170.1" height="70" viewBox="0 0 170.1 70">
  <rect id="XMLID_4188_" width="169.8" height="70" fill="#fff"/>
  <g id="XMLID_308_">
    <path id="XMLID_4057_" d="M8.9,22.4,0,18.5V54.7H7.9V35l12,19.5.6.2h6.1l-.2-27.2-7.3-2v14l-.4-.8Z" fill="#ec1c24"/>
    <path id="XMLID_3870_" d="M85.1,28.3h-.2l-7.7-13H67.7l13,19.3V54.7h8.5l.2-20.1,13-19.1v-.2H92.9l-.4.8-7.3,12h0v.2Z" fill="#ec1c24"/>
    <path id="XMLID_3766_" d="M136.1,28.9l-5.5,1-3.9,7.3V30.3h-.2l-5.9.8V54.7h6.1V45.4l4.7,9.1h0l6.3.2-.2-.6-6.1-12.2-.4-1,.4-.8,5.5-11.4h-.2Z" fill="#ec1c24"/>
    <path id="XMLID_3571_" d="M169.8,23.6,167,20.4l-14.2,4.5V54.8h6.5V42.1l3.9-.2V54.7h6.9V40.9l-2-3,1.8-3.2V23.6Zm-10.6,5.5,3.9-1v6.5l-.4.2-3.5.4Z" fill="#ec1c24"/>
    <path id="XMLID_3243_" d="M150.3,27.9l-.2-2.2-12.2,2.8V54.7h12.8V48.2h0l-.6-.2h-5.3V42.9l5.5-.6V35.6l-5.1.8h-.4V32.7l5.5-1.6Z" fill="#ec1c24"/>
    <path id="XMLID_3076_" d="M118.2,34.4,116,32l-10,1-.2.4V54.7h5.1V46h2.4v8.7h5.1l-.2-10L117,43.1v-.2l1.2-1.6V34.4Zm-4.7,2.2-.2,4.5-2.4.2V36.6Z" fill="#ec1c24"/>
    <path id="XMLID_3071_" d="M104,36l-.4-.4-2.4-2.2-.6-.2-5.3.4-1,.4-2.6,2.4V51.2l3.2,3.3,5.9.2.2-.2,2.8-3.3L104,50Zm-7.7,2.2h3V50.4h-3Z" fill="#ec1c24"/>
    <path id="XMLID_3068_" d="M72.1,33.8l-.2.2-2.8,9.7h0L66.3,33.1l-.7-.1-5.5-.4L56,43.8,53.8,32h-.2l-.6-.3-6.3-1,5.1,24,6.5-.2,4.5-12,3.3,12,.6.2h5.5l.2-.4.6-1,5.3-19.1Z" fill="#ec1c24"/>
    <path id="XMLID_479_" d="M45.1,36.4V30.5L29.5,28.1V54.7H46.6V48.2H37.7V44.3H45V39.4l-7.3-.6V35.5Z" fill="#ec1c24"/>
  </g>
</svg>
