<svg xmlns="http://www.w3.org/2000/svg" width="261.301" height="63.159" viewBox="0 0 261.301 63.159">
  <g id="Layer-1" transform="translate(-10.675 -10.798)">
    <path id="Path_1" data-name="Path 1" d="M1267.83,578.174l3.919-1.732v-2.936l-3.919,1.741v-8.278h-4.239v10.15l-2.022.9v2.929l2.022-.891v6.73h10.071V582.51h-5.833Zm-14.963-1.305a6.4,6.4,0,0,0-1.495-4.435,5.235,5.235,0,0,0-4.005-1.723,4.933,4.933,0,0,0-4.009,1.723,6.738,6.738,0,0,0-1.52,4.554,6.352,6.352,0,0,0,1.547,4.373,5.072,5.072,0,0,0,3.932,1.736,5.151,5.151,0,0,0,4.025-1.71,6.554,6.554,0,0,0,1.525-4.518m1.605-7.234a10.609,10.609,0,0,1,.025,14.5,10.341,10.341,0,0,1-14.311.022,10.033,10.033,0,0,1-2.8-7.289,9.739,9.739,0,0,1,2.905-7.254,9.494,9.494,0,0,1,6.892-2.859,9.888,9.888,0,0,1,7.289,2.88m38.286,10.067-9.088-12.734h-4.213v19.814h4.262v-12.83l9.056,12.83h4.163V566.969h-4.18Zm-63.81-6.7a2.24,2.24,0,0,0-.86-1.872,3.961,3.961,0,0,0-2.445-.665l-.957.069V575.6h1.657a2.624,2.624,0,0,0,2.6-2.593m2.741-4.442a5.485,5.485,0,0,1,1.677,4.184,6.7,6.7,0,0,1-.828,3.235,5.147,5.147,0,0,1-2.473,2.286,7.524,7.524,0,0,1-2.84.783l-2.476.067v7.664h-4.234V566.969h6.769a6.1,6.1,0,0,1,4.406,1.6m15.226-3.3h-2.545l2-4.283h4.475Z" transform="translate(-1118.987 -514.062)" fill="none" stroke="#231f20" stroke-linecap="round" stroke-linejoin="round" stroke-width="1.04"/>
    <path id="Path_2" data-name="Path 2" d="M2221.687,640.8a6.446,6.446,0,0,0-1.5-4.437,5.258,5.258,0,0,0-3.991-1.72,4.883,4.883,0,0,0-4.01,1.72,6.678,6.678,0,0,0-1.531,4.556,6.263,6.263,0,0,0,1.56,4.373,5,5,0,0,0,3.914,1.737,5.151,5.151,0,0,0,4.026-1.711,6.533,6.533,0,0,0,1.537-4.518m1.6-7.234a10.609,10.609,0,0,1,.02,14.5,9.675,9.675,0,0,1-7.182,2.887A9.57,9.57,0,0,1,2209,648.09a10.01,10.01,0,0,1-2.806-7.289,9.749,9.749,0,0,1,2.911-7.25,9.475,9.475,0,0,1,6.888-2.863,9.914,9.914,0,0,1,7.3,2.879" transform="translate(-2023.061 -577.995)" fill="none" stroke="#231f20" stroke-linecap="round" stroke-linejoin="round" stroke-width="1.04"/>
    <path id="Path_3" data-name="Path 3" d="M2780.279,646l-9.078-12.733h-4.228v19.814h4.265V640.25l9.071,12.83h4.153V633.267h-4.183Z" transform="translate(-2537.414 -580.36)" fill="none" stroke="#231f20" stroke-linecap="round" stroke-linejoin="round" stroke-width="1.04"/>
    <path id="Path_4" data-name="Path 4" d="M2507.59,633.005a10.168,10.168,0,0,0-2.839,7.277,10.013,10.013,0,0,0,2.793,7.162,9.038,9.038,0,0,0,6.8,2.939,19.376,19.376,0,0,0,5.805-1.166v-4.8a11.214,11.214,0,0,1-5.346,1.791,5.369,5.369,0,0,1-4.077-1.59,5.9,5.9,0,0,1-1.528-4.25,6.553,6.553,0,0,1,1.45-4.462,4.908,4.908,0,0,1,3.869-1.66,11.312,11.312,0,0,1,5.632,1.93v-4.833a14.1,14.1,0,0,0-5.632-1.321,9.231,9.231,0,0,0-6.924,2.978" transform="translate(-2296.901 -577.388)" fill="none" stroke="#231f20" stroke-linecap="round" stroke-linejoin="round" stroke-width="1.04"/>
    <path id="Path_5" data-name="Path 5" d="M3051.717,645.6l-2.37-5.843-2.334,5.843Zm7.345,7.481h-4.3l-1.584-3.895h-7.611l-1.542,3.895h-4.28l7.934-19.813h3.308Z" transform="translate(-2787.605 -580.36)" fill="none" stroke="#231f20" stroke-linecap="round" stroke-linejoin="round" stroke-width="1.04"/>
    <path id="Path_6" data-name="Path 6" d="M1245.15,168.342v13.273a21.808,21.808,0,0,1-10.2,2.473c-9.13,0-14.411-6.508-14.411-14.145,0-7.99,5.8-14.151,14.025-14.151,4.946,0,7.95,1.333,10.045,3.5l-2.581,2.777a10.236,10.236,0,0,0-7.464-2.85c-6.16,0-10.145,4.822-10.145,10.725a10.391,10.391,0,0,0,10.447,10.721,14.143,14.143,0,0,0,6.619-1.407v-7.489h-5.968v-3.426Z" transform="translate(-1119.012 -142.416)" fill="none" stroke="#231f20" stroke-linecap="round" stroke-linejoin="round" stroke-width="1.04"/>
    <path id="Path_7" data-name="Path 7" d="M1590.035,181.113,1585,168.747h-.068l-5.094,12.366Zm-6.541-17.083h3.305l11.521,26.931h-4.262l-2.7-6.664h-12.824l-2.656,6.664h-4.267Z" transform="translate(-1441.017 -149.972)" fill="none" stroke="#231f20" stroke-linecap="round" stroke-linejoin="round" stroke-width="1.04"/>
    <path id="Path_8" data-name="Path 8" d="M1954.9,164.02h3.64v23.5h12.372v3.427H1954.9Z" transform="translate(-1792.573 -149.963)" fill="none" stroke="#231f20" stroke-linecap="round" stroke-linejoin="round" stroke-width="1.04"/>
    <path id="Path_9" data-name="Path 9" d="M2213.38,164.02h17.38v3.424h-13.722v8.022h12.773v3.428h-12.773v8.631h14.412v3.427H2213.38Z" transform="translate(-2029.653 -149.963)" fill="none" stroke="#231f20" stroke-linecap="round" stroke-linejoin="round" stroke-width="1.04"/>
    <path id="Path_10" data-name="Path 10" d="M2523.021,175.9h4.793c2.889,0,5.772-.685,5.772-4.34s-2.883-4.334-5.772-4.334h-4.793Zm-3.654-11.868h9.46c6.892,0,8.632,4.14,8.632,7.528a7.2,7.2,0,0,1-6.607,7.111l7.65,12.29h-4.569l-6.861-11.863h-4.051v11.863h-3.654Z" transform="translate(-2310.307 -149.972)" fill="none" stroke="#231f20" stroke-linecap="round" stroke-linejoin="round" stroke-width="1.04"/>
    <rect id="Rectangle_3" data-name="Rectangle 3" width="3.665" height="26.931" transform="translate(234.94 14.058)" fill="none" stroke="#231f20" stroke-linecap="round" stroke-linejoin="round" stroke-width="1.04"/>
    <path id="Path_11" data-name="Path 11" d="M2968.827,181.113l-5-12.366h-.088l-5.093,12.366ZM2962.3,164.03h3.307l11.529,26.931h-4.255l-2.712-6.664h-12.813l-2.667,6.664h-4.26Z" transform="translate(-2705.677 -149.972)" fill="none" stroke="#231f20" stroke-linecap="round" stroke-linejoin="round" stroke-width="1.04"/>
    <path id="Path_12" data-name="Path 12" d="M598.6,602.475a2.226,2.226,0,0,1-1.568-3.807,2.242,2.242,0,0,1,1.575-.645,2.235,2.235,0,0,1,2.227,2.223,2.227,2.227,0,0,1-1.489,2.1,2.253,2.253,0,0,1-.745.127" transform="translate(-546.522 -548.033)" fill="none" stroke="#231f20" stroke-linecap="round" stroke-linejoin="round" stroke-width="1.04"/>
    <path id="Path_13" data-name="Path 13" d="M519.245,681.66a2.227,2.227,0,0,1-1.571-3.807l.018-.018a2.227,2.227,0,1,1,3.14,3.159l-.018.019a2.217,2.217,0,0,1-1.569.648" transform="translate(-473.735 -620.644)" fill="none" stroke="#231f20" stroke-linecap="round" stroke-linejoin="round" stroke-width="1.04"/>
    <path id="Path_14" data-name="Path 14" d="M439.988,761.049a2.231,2.231,0,0,1,0-4.461c.041,0,.083,0,.124,0a2.231,2.231,0,0,1-.122,4.458" transform="translate(-401.039 -693.471)" fill="none" stroke="#231f20" stroke-linecap="round" stroke-linejoin="round" stroke-width="1.04"/>
    <path id="Path_15" data-name="Path 15" d="M360.583,681.685a2.216,2.216,0,0,1-1.57-.649l-.019-.018a2.228,2.228,0,0,1,3.141-3.161l.019.018a2.229,2.229,0,0,1-1.571,3.809" transform="translate(-328.191 -620.665)" fill="none" stroke="#231f20" stroke-linecap="round" stroke-linejoin="round" stroke-width="1.04"/>
    <path id="Path_16" data-name="Path 16" d="M281.344,602.405a2.205,2.205,0,0,1-1.569-.652l-.008-.008a2.222,2.222,0,1,1,1.578.66" transform="translate(-255.527 -547.959)" fill="none" stroke="#231f20" stroke-linecap="round" stroke-linejoin="round" stroke-width="1.04"/>
    <path id="Path_17" data-name="Path 17" d="M373.7,364.288a2.228,2.228,0,0,1-1.586-3.793l.019-.019a2.227,2.227,0,1,1,3.17,3.13l-.019.018a2.213,2.213,0,0,1-1.583.664m-6.569,6.568a2.228,2.228,0,0,1-1.571-3.809l.018-.019a2.229,2.229,0,0,1,3.142,3.162l-.02.019a2.224,2.224,0,0,1-1.57.647m-6.569,6.568a2.226,2.226,0,0,1-1.569-3.807l.018-.019a2.229,2.229,0,0,1,3.141,3.162l-.02.017a2.218,2.218,0,0,1-1.57.647" transform="translate(-328.19 -329.544)" fill="none" stroke="#231f20" stroke-linecap="round" stroke-linejoin="round" stroke-width="1.04"/>
    <path id="Path_18" data-name="Path 18" d="M598.6,285.055a2.225,2.225,0,0,1-1.568-3.807l.008-.009a2.233,2.233,0,0,1,1.567-.642,2.229,2.229,0,0,1,.143,4.453c-.05,0-.1,0-.15,0" transform="translate(-546.522 -256.888)" fill="none" stroke="#231f20" stroke-linecap="round" stroke-linejoin="round" stroke-width="1.04"/>
    <path id="Path_19" data-name="Path 19" d="M369.075,848.4a1.463,1.463,0,0,1-1.039-.43l-.009-.01a1.47,1.47,0,1,1,1.048.44" transform="translate(-336.683 -774.967)" fill="none" stroke="#231f20" stroke-linecap="round" stroke-linejoin="round" stroke-width="1.04"/>
    <path id="Path_20" data-name="Path 20" d="M210.245,689.384a1.469,1.469,0,0,1-1.042-.429l-.02-.019a1.479,1.479,0,0,1,2.086-2.1l.018.019a1.478,1.478,0,0,1-1.042,2.527m6.575,6.584a1.478,1.478,0,0,1-1.042-.43l-.019-.02a1.479,1.479,0,0,1,2.086-2.1l.018.018a1.481,1.481,0,0,1-1.042,2.529" transform="translate(-190.987 -629.102)" fill="none" stroke="#231f20" stroke-linecap="round" stroke-linejoin="round" stroke-width="1.04"/>
    <path id="Path_21" data-name="Path 21" d="M130.932,609.954a1.461,1.461,0,0,1-1.04-.431l-.009-.008a1.475,1.475,0,1,1,1.048.439" transform="translate(-118.256 -556.257)" fill="none" stroke="#231f20" stroke-linecap="round" stroke-linejoin="round" stroke-width="1.04"/>
    <path id="Path_22" data-name="Path 22" d="M236.452,213.146a1.479,1.479,0,0,1-1.042-2.528l.018-.018a1.479,1.479,0,1,1,2.085,2.1l-.018.019a1.486,1.486,0,0,1-1.043.429m-6.571,6.569a1.479,1.479,0,0,1-1.042-2.528l.018-.018a1.479,1.479,0,0,1,2.086,2.1l-.019.019a1.474,1.474,0,0,1-1.043.429m-6.569,6.57a1.479,1.479,0,0,1-1.048-2.521l.019-.018a1.478,1.478,0,0,1,2.1,2.083l-.02.019a1.469,1.469,0,0,1-1.048.437m-6.57,6.57a1.48,1.48,0,0,1-1.041-2.529l.018-.018a1.479,1.479,0,0,1,2.084,2.1l-.019.019a1.477,1.477,0,0,1-1.043.43m-6.568,6.568a1.478,1.478,0,0,1-1.042-2.526l.018-.02a1.479,1.479,0,1,1,2.085,2.1l-.02.019a1.47,1.47,0,0,1-1.041.429" transform="translate(-190.939 -192.292)" fill="none" stroke="#231f20" stroke-linecap="round" stroke-linejoin="round" stroke-width="1.04"/>
    <path id="Path_23" data-name="Path 23" d="M606.962,133.892a1.478,1.478,0,0,1-1.041-2.527l.008-.008a1.478,1.478,0,1,1,1.033,2.534" transform="translate(-554.876 -119.613)" fill="none" stroke="#231f20" stroke-linecap="round" stroke-linejoin="round" stroke-width="1.04"/>
    <path id="Path_24" data-name="Path 24" d="M678.03,681.66a2.223,2.223,0,0,1-1.571-.648l-.018-.019a2.227,2.227,0,1,1,3.14-3.159l.018.018a2.226,2.226,0,0,1-1.569,3.807" transform="translate(-619.357 -620.644)" fill="none" stroke="#231f20" stroke-linecap="round" stroke-linejoin="round" stroke-width="1.04"/>
    <path id="Path_25" data-name="Path 25" d="M757.434,760.993a2.184,2.184,0,0,1-.849-.169,2.208,2.208,0,0,1-.725-.484l0,0a2.23,2.23,0,0,1,2.788-3.45,2.368,2.368,0,0,1,.366.3,2.224,2.224,0,0,1,.006,3.147,2.248,2.248,0,0,1-1.585.655" transform="translate(-692.201 -693.419)" fill="none" stroke="#231f20" stroke-linecap="round" stroke-linejoin="round" stroke-width="1.04"/>
    <path id="Path_26" data-name="Path 26" d="M836.673,681.677a2.228,2.228,0,0,1-1.57-3.809l.019-.018a2.228,2.228,0,0,1,3.14,3.161l-.018.018a2.219,2.219,0,0,1-1.571.649" transform="translate(-764.883 -620.658)" fill="none" stroke="#231f20" stroke-linecap="round" stroke-linejoin="round" stroke-width="1.04"/>
    <path id="Path_27" data-name="Path 27" d="M916.044,602.356a2.229,2.229,0,1,1,1.582-.655,2.218,2.218,0,0,1-1.582.655" transform="translate(-837.681 -547.914)" fill="none" stroke="#231f20" stroke-linecap="round" stroke-linejoin="round" stroke-width="1.04"/>
    <path id="Path_28" data-name="Path 28" d="M678.031,364.295a2.217,2.217,0,0,1-1.586-.664l-.018-.018a2.228,2.228,0,1,1,3.171-3.13l.018.019a2.228,2.228,0,0,1-1.585,3.793m6.57,6.568a2.223,2.223,0,0,1-1.572-.647l-.018-.019a2.229,2.229,0,0,1,3.142-3.162l.016.019a2.228,2.228,0,0,1-1.568,3.809m6.566,6.568a2.219,2.219,0,0,1-1.569-.647l-.017-.017a2.228,2.228,0,1,1,3.139-3.162l.018.019a2.227,2.227,0,0,1-1.571,3.807" transform="translate(-619.358 -329.551)" fill="none" stroke="#231f20" stroke-linecap="round" stroke-linejoin="round" stroke-width="1.04"/>
    <path id="Path_29" data-name="Path 29" d="M844.933,848.408a1.477,1.477,0,0,1-1.048-2.519l.009-.007a1.478,1.478,0,1,1,1.039,2.526" transform="translate(-773.146 -774.976)" fill="none" stroke="#231f20" stroke-linecap="round" stroke-linejoin="round" stroke-width="1.04"/>
    <path id="Path_30" data-name="Path 30" d="M930.778,689.384a1.478,1.478,0,0,1-1.041-2.527l.019-.019a1.479,1.479,0,0,1,2.084,2.1l-.019.019a1.473,1.473,0,0,1-1.043.429m-6.575,6.584a1.48,1.48,0,0,1-1.041-2.529l.018-.018a1.479,1.479,0,0,1,2.085,2.1l-.019.02a1.477,1.477,0,0,1-1.042.43" transform="translate(-845.853 -629.102)" fill="none" stroke="#231f20" stroke-linecap="round" stroke-linejoin="round" stroke-width="1.04"/>
    <path id="Path_31" data-name="Path 31" d="M1083.067,609.9a1.478,1.478,0,0,1-1.407-1.935,1.446,1.446,0,0,1,.363-.6,1.473,1.473,0,0,1,2.087-.006,1.522,1.522,0,0,1,.441,1.055,1.483,1.483,0,0,1-1.483,1.481" transform="translate(-991.564 -556.204)" fill="none" stroke="#231f20" stroke-linecap="round" stroke-linejoin="round" stroke-width="1.04"/>
    <path id="Path_32" data-name="Path 32" d="M686.289,213.146a1.478,1.478,0,0,1-1.041-.429l-.018-.019a1.478,1.478,0,1,1,2.083-2.1l.019.018a1.479,1.479,0,0,1-1.043,2.528m6.571,6.568a1.476,1.476,0,0,1-1.042-.429l-.018-.019a1.479,1.479,0,0,1,2.085-2.1l.019.018a1.479,1.479,0,0,1-1.043,2.528m6.57,6.57a1.471,1.471,0,0,1-1.049-.437l-.019-.019a1.479,1.479,0,0,1,2.1-2.083l.018.018a1.479,1.479,0,0,1-1.05,2.521m6.571,6.57a1.475,1.475,0,0,1-1.043-.43l-.018-.019a1.479,1.479,0,1,1,2.084-2.1l.018.018A1.48,1.48,0,0,1,706,232.854m6.568,6.568a1.47,1.47,0,0,1-1.041-.429l-.018-.019a1.479,1.479,0,0,1,2.085-2.1l.018.02a1.478,1.478,0,0,1-1.043,2.526" transform="translate(-627.62 -192.292)" fill="none" stroke="#231f20" stroke-linecap="round" stroke-linejoin="round" stroke-width="1.04"/>
    <path id="Path_33" data-name="Path 33" d="M1267.83,578.174l3.919-1.732v-2.936l-3.919,1.741v-8.278h-4.239v10.15l-2.022.9v2.929l2.022-.891v6.73h10.071V582.51h-5.833Zm-14.963-1.305a6.4,6.4,0,0,0-1.495-4.435,5.235,5.235,0,0,0-4.005-1.723,4.933,4.933,0,0,0-4.009,1.723,6.738,6.738,0,0,0-1.52,4.554,6.352,6.352,0,0,0,1.547,4.373,5.072,5.072,0,0,0,3.932,1.736,5.151,5.151,0,0,0,4.025-1.71,6.554,6.554,0,0,0,1.525-4.518m1.605-7.234a10.609,10.609,0,0,1,.025,14.5,10.341,10.341,0,0,1-14.311.022,10.033,10.033,0,0,1-2.8-7.289,9.739,9.739,0,0,1,2.905-7.254,9.494,9.494,0,0,1,6.892-2.859,9.888,9.888,0,0,1,7.289,2.88m38.286,10.067-9.088-12.734h-4.213v19.814h4.262v-12.83l9.056,12.83h4.163V566.969h-4.18Zm-63.81-6.7a2.24,2.24,0,0,0-.86-1.872,3.961,3.961,0,0,0-2.445-.665l-.957.069V575.6h1.657a2.624,2.624,0,0,0,2.6-2.593m2.741-4.442a5.485,5.485,0,0,1,1.677,4.184,6.7,6.7,0,0,1-.828,3.235,5.147,5.147,0,0,1-2.473,2.286,7.524,7.524,0,0,1-2.84.783l-2.476.067v7.664h-4.234V566.969h6.769a6.1,6.1,0,0,1,4.406,1.6m15.226-3.3h-2.545l2-4.283h4.475Z" transform="translate(-1118.987 -514.062)" fill="#fff"/>
    <path id="Path_34" data-name="Path 34" d="M2221.687,640.8a6.446,6.446,0,0,0-1.5-4.437,5.258,5.258,0,0,0-3.991-1.72,4.883,4.883,0,0,0-4.01,1.72,6.678,6.678,0,0,0-1.531,4.556,6.263,6.263,0,0,0,1.56,4.373,5,5,0,0,0,3.914,1.737,5.151,5.151,0,0,0,4.026-1.711,6.533,6.533,0,0,0,1.537-4.518m1.6-7.234a10.609,10.609,0,0,1,.02,14.5,9.675,9.675,0,0,1-7.182,2.887A9.57,9.57,0,0,1,2209,648.09a10.01,10.01,0,0,1-2.806-7.289,9.749,9.749,0,0,1,2.911-7.25,9.475,9.475,0,0,1,6.888-2.863,9.914,9.914,0,0,1,7.3,2.879" transform="translate(-2023.061 -577.995)" fill="#fff"/>
    <path id="Path_35" data-name="Path 35" d="M2780.279,646l-9.078-12.733h-4.228v19.814h4.265V640.25l9.071,12.83h4.153V633.267h-4.183Z" transform="translate(-2537.414 -580.36)" fill="#fff"/>
    <path id="Path_36" data-name="Path 36" d="M2507.59,633.005a10.168,10.168,0,0,0-2.839,7.277,10.013,10.013,0,0,0,2.793,7.162,9.038,9.038,0,0,0,6.8,2.939,19.376,19.376,0,0,0,5.805-1.166v-4.8a11.214,11.214,0,0,1-5.346,1.791,5.369,5.369,0,0,1-4.077-1.59,5.9,5.9,0,0,1-1.528-4.25,6.553,6.553,0,0,1,1.45-4.462,4.908,4.908,0,0,1,3.869-1.66,11.312,11.312,0,0,1,5.632,1.93v-4.833a14.1,14.1,0,0,0-5.632-1.321,9.231,9.231,0,0,0-6.924,2.978" transform="translate(-2296.901 -577.388)" fill="#fff"/>
    <path id="Path_37" data-name="Path 37" d="M3051.717,645.6l-2.37-5.843-2.334,5.843Zm7.345,7.481h-4.3l-1.584-3.895h-7.611l-1.542,3.895h-4.28l7.934-19.813h3.308Z" transform="translate(-2787.605 -580.36)" fill="#fff"/>
    <path id="Path_38" data-name="Path 38" d="M1245.15,168.342v13.273a21.808,21.808,0,0,1-10.2,2.473c-9.13,0-14.411-6.508-14.411-14.145,0-7.99,5.8-14.151,14.025-14.151,4.946,0,7.95,1.333,10.045,3.5l-2.581,2.777a10.236,10.236,0,0,0-7.464-2.85c-6.16,0-10.145,4.822-10.145,10.725a10.391,10.391,0,0,0,10.447,10.721,14.143,14.143,0,0,0,6.619-1.407v-7.489h-5.968v-3.426Z" transform="translate(-1119.012 -142.416)" fill="#fff"/>
    <path id="Path_39" data-name="Path 39" d="M1590.035,181.113,1585,168.747h-.068l-5.094,12.366Zm-6.541-17.083h3.305l11.521,26.931h-4.262l-2.7-6.664h-12.824l-2.656,6.664h-4.267Z" transform="translate(-1441.017 -149.972)" fill="#fff"/>
    <path id="Path_40" data-name="Path 40" d="M1954.9,164.02h3.64v23.5h12.372v3.427H1954.9Z" transform="translate(-1792.573 -149.963)" fill="#fff"/>
    <path id="Path_41" data-name="Path 41" d="M2213.38,164.02h17.38v3.424h-13.722v8.022h12.773v3.428h-12.773v8.631h14.412v3.427H2213.38Z" transform="translate(-2029.653 -149.963)" fill="#fff"/>
    <path id="Path_42" data-name="Path 42" d="M2523.021,175.9h4.793c2.889,0,5.772-.685,5.772-4.34s-2.883-4.334-5.772-4.334h-4.793Zm-3.654-11.868h9.46c6.892,0,8.632,4.14,8.632,7.528a7.2,7.2,0,0,1-6.607,7.111l7.65,12.29h-4.569l-6.861-11.863h-4.051v11.863h-3.654Z" transform="translate(-2310.307 -149.972)" fill="#fff"/>
    <rect id="Rectangle_4" data-name="Rectangle 4" width="3.665" height="26.931" transform="translate(234.94 14.058)" fill="#fff"/>
    <path id="Path_43" data-name="Path 43" d="M2968.827,181.113l-5-12.366h-.088l-5.093,12.366ZM2962.3,164.03h3.307l11.529,26.931h-4.255l-2.712-6.664h-12.813l-2.667,6.664h-4.26Z" transform="translate(-2705.677 -149.972)" fill="#fff"/>
    <path id="Path_44" data-name="Path 44" d="M598.6,602.475a2.226,2.226,0,0,1-1.568-3.807,2.242,2.242,0,0,1,1.575-.645,2.235,2.235,0,0,1,2.227,2.223,2.227,2.227,0,0,1-1.489,2.1,2.253,2.253,0,0,1-.745.127" transform="translate(-546.522 -548.033)" fill="#fff"/>
    <path id="Path_45" data-name="Path 45" d="M519.245,681.66a2.227,2.227,0,0,1-1.571-3.807l.018-.018a2.227,2.227,0,1,1,3.14,3.159l-.018.019a2.217,2.217,0,0,1-1.569.648" transform="translate(-473.735 -620.644)" fill="#fff"/>
    <path id="Path_46" data-name="Path 46" d="M439.988,761.049a2.231,2.231,0,0,1,0-4.461c.041,0,.083,0,.124,0a2.231,2.231,0,0,1-.122,4.458" transform="translate(-401.039 -693.471)" fill="#fff"/>
    <path id="Path_47" data-name="Path 47" d="M360.583,681.685a2.216,2.216,0,0,1-1.57-.649l-.019-.018a2.228,2.228,0,0,1,3.141-3.161l.019.018a2.229,2.229,0,0,1-1.571,3.809" transform="translate(-328.191 -620.665)" fill="#fff"/>
    <path id="Path_48" data-name="Path 48" d="M281.344,602.405a2.205,2.205,0,0,1-1.569-.652l-.008-.008a2.222,2.222,0,1,1,1.578.66" transform="translate(-255.527 -547.959)" fill="#fff"/>
    <path id="Path_49" data-name="Path 49" d="M373.7,364.288a2.228,2.228,0,0,1-1.586-3.793l.019-.019a2.227,2.227,0,1,1,3.17,3.13l-.019.018a2.213,2.213,0,0,1-1.583.664m-6.569,6.568a2.228,2.228,0,0,1-1.571-3.809l.018-.019a2.229,2.229,0,0,1,3.142,3.162l-.02.019a2.224,2.224,0,0,1-1.57.647m-6.569,6.568a2.226,2.226,0,0,1-1.569-3.807l.018-.019a2.229,2.229,0,0,1,3.141,3.162l-.02.017a2.218,2.218,0,0,1-1.57.647" transform="translate(-328.19 -329.544)" fill="#fff"/>
    <path id="Path_50" data-name="Path 50" d="M598.6,285.055a2.225,2.225,0,0,1-1.568-3.807l.008-.009a2.233,2.233,0,0,1,1.567-.642,2.229,2.229,0,0,1,.143,4.453c-.05,0-.1,0-.15,0" transform="translate(-546.522 -256.888)" fill="#fff"/>
    <path id="Path_51" data-name="Path 51" d="M369.075,848.4a1.463,1.463,0,0,1-1.039-.43l-.009-.01a1.47,1.47,0,1,1,1.048.44" transform="translate(-336.683 -774.967)" fill="#fff"/>
    <path id="Path_52" data-name="Path 52" d="M210.245,689.384a1.469,1.469,0,0,1-1.042-.429l-.02-.019a1.479,1.479,0,0,1,2.086-2.1l.018.019a1.478,1.478,0,0,1-1.042,2.527m6.575,6.584a1.478,1.478,0,0,1-1.042-.43l-.019-.02a1.479,1.479,0,0,1,2.086-2.1l.018.018a1.481,1.481,0,0,1-1.042,2.529" transform="translate(-190.987 -629.102)" fill="#fff"/>
    <path id="Path_53" data-name="Path 53" d="M130.932,609.954a1.461,1.461,0,0,1-1.04-.431l-.009-.008a1.475,1.475,0,1,1,1.048.439" transform="translate(-118.256 -556.257)" fill="#fff"/>
    <path id="Path_54" data-name="Path 54" d="M236.452,213.146a1.479,1.479,0,0,1-1.042-2.528l.018-.018a1.479,1.479,0,1,1,2.085,2.1l-.018.019a1.486,1.486,0,0,1-1.043.429m-6.571,6.569a1.479,1.479,0,0,1-1.042-2.528l.018-.018a1.479,1.479,0,0,1,2.086,2.1l-.019.019a1.474,1.474,0,0,1-1.043.429m-6.569,6.57a1.479,1.479,0,0,1-1.048-2.521l.019-.018a1.478,1.478,0,0,1,2.1,2.083l-.02.019a1.469,1.469,0,0,1-1.048.437m-6.57,6.57a1.48,1.48,0,0,1-1.041-2.529l.018-.018a1.479,1.479,0,0,1,2.084,2.1l-.019.019a1.477,1.477,0,0,1-1.043.43m-6.568,6.568a1.478,1.478,0,0,1-1.042-2.526l.018-.02a1.479,1.479,0,1,1,2.085,2.1l-.02.019a1.47,1.47,0,0,1-1.041.429" transform="translate(-190.939 -192.292)" fill="#fff"/>
    <path id="Path_55" data-name="Path 55" d="M606.962,133.892a1.478,1.478,0,0,1-1.041-2.527l.008-.008a1.478,1.478,0,1,1,1.033,2.534" transform="translate(-554.876 -119.613)" fill="#fff"/>
    <path id="Path_56" data-name="Path 56" d="M678.03,681.66a2.223,2.223,0,0,1-1.571-.648l-.018-.019a2.227,2.227,0,1,1,3.14-3.159l.018.018a2.226,2.226,0,0,1-1.569,3.807" transform="translate(-619.357 -620.644)" fill="#fff"/>
    <path id="Path_57" data-name="Path 57" d="M757.434,760.993a2.184,2.184,0,0,1-.849-.169,2.208,2.208,0,0,1-.725-.484l0,0a2.23,2.23,0,0,1,2.788-3.45,2.368,2.368,0,0,1,.366.3,2.224,2.224,0,0,1,.006,3.147,2.248,2.248,0,0,1-1.585.655" transform="translate(-692.201 -693.419)" fill="#fff"/>
    <path id="Path_58" data-name="Path 58" d="M836.673,681.677a2.228,2.228,0,0,1-1.57-3.809l.019-.018a2.228,2.228,0,0,1,3.14,3.161l-.018.018a2.219,2.219,0,0,1-1.571.649" transform="translate(-764.883 -620.658)" fill="#fff"/>
    <path id="Path_59" data-name="Path 59" d="M916.044,602.356a2.229,2.229,0,1,1,1.582-.655,2.218,2.218,0,0,1-1.582.655" transform="translate(-837.681 -547.914)" fill="#fff"/>
    <path id="Path_60" data-name="Path 60" d="M678.031,364.295a2.217,2.217,0,0,1-1.586-.664l-.018-.018a2.228,2.228,0,1,1,3.171-3.13l.018.019a2.228,2.228,0,0,1-1.585,3.793m6.57,6.568a2.223,2.223,0,0,1-1.572-.647l-.018-.019a2.229,2.229,0,0,1,3.142-3.162l.016.019a2.228,2.228,0,0,1-1.568,3.809m6.566,6.568a2.219,2.219,0,0,1-1.569-.647l-.017-.017a2.228,2.228,0,1,1,3.139-3.162l.018.019a2.227,2.227,0,0,1-1.571,3.807" transform="translate(-619.358 -329.551)" fill="#fff"/>
    <path id="Path_61" data-name="Path 61" d="M844.933,848.408a1.477,1.477,0,0,1-1.048-2.519l.009-.007a1.478,1.478,0,1,1,1.039,2.526" transform="translate(-773.146 -774.976)" fill="#fff"/>
    <path id="Path_62" data-name="Path 62" d="M930.778,689.384a1.478,1.478,0,0,1-1.041-2.527l.019-.019a1.479,1.479,0,0,1,2.084,2.1l-.019.019a1.473,1.473,0,0,1-1.043.429m-6.575,6.584a1.48,1.48,0,0,1-1.041-2.529l.018-.018a1.479,1.479,0,0,1,2.085,2.1l-.019.02a1.477,1.477,0,0,1-1.042.43" transform="translate(-845.853 -629.102)" fill="#fff"/>
    <path id="Path_63" data-name="Path 63" d="M1083.067,609.9a1.478,1.478,0,0,1-1.407-1.935,1.446,1.446,0,0,1,.363-.6,1.473,1.473,0,0,1,2.087-.006,1.522,1.522,0,0,1,.441,1.055,1.483,1.483,0,0,1-1.483,1.481" transform="translate(-991.564 -556.204)" fill="#fff"/>
    <path id="Path_64" data-name="Path 64" d="M686.289,213.146a1.478,1.478,0,0,1-1.041-.429l-.018-.019a1.478,1.478,0,1,1,2.083-2.1l.019.018a1.479,1.479,0,0,1-1.043,2.528m6.571,6.568a1.476,1.476,0,0,1-1.042-.429l-.018-.019a1.479,1.479,0,0,1,2.085-2.1l.019.018a1.479,1.479,0,0,1-1.043,2.528m6.57,6.57a1.471,1.471,0,0,1-1.049-.437l-.019-.019a1.479,1.479,0,0,1,2.1-2.083l.018.018a1.479,1.479,0,0,1-1.05,2.521m6.571,6.57a1.475,1.475,0,0,1-1.043-.43l-.018-.019a1.479,1.479,0,1,1,2.084-2.1l.018.018A1.48,1.48,0,0,1,706,232.854m6.568,6.568a1.47,1.47,0,0,1-1.041-.429l-.018-.019a1.479,1.479,0,0,1,2.085-2.1l.018.02a1.478,1.478,0,0,1-1.043,2.526" transform="translate(-627.62 -192.292)" fill="#fff"/>
  </g>
</svg>
