<?xml version="1.0" encoding="UTF-8" standalone="no"?>
<svg
   width="6079"
   height="2602"
   viewBox="0 0 6079 2602"
   fill="none"
   version="1.1"
   id="svg1078"
   sodipodi:docname="roads_gallery.svg"
   inkscape:version="1.1.2 (b8e25be833, 2022-02-05)"
   xmlns:inkscape="http://www.inkscape.org/namespaces/inkscape"
   xmlns:sodipodi="http://sodipodi.sourceforge.net/DTD/sodipodi-0.dtd"
   xmlns="http://www.w3.org/2000/svg"
   xmlns:svg="http://www.w3.org/2000/svg">
  <sodipodi:namedview
     id="namedview1080"
     pagecolor="#ffffff"
     bordercolor="#999999"
     borderopacity="1"
     inkscape:pageshadow="0"
     inkscape:pageopacity="0"
     inkscape:pagecheckerboard="0"
     showgrid="false"
     inkscape:zoom="0.49630149"
     inkscape:cx="3417.2776"
     inkscape:cy="1680.4302"
     inkscape:window-width="1920"
     inkscape:window-height="1017"
     inkscape:window-x="-8"
     inkscape:window-y="-8"
     inkscape:window-maximized="1"
     inkscape:current-layer="svg1078" />
  <path
     d="m 3010.0866,1028.392 9.66,3.71 23.37,-12.45 -12.73,16.54 9.66,3.72 35.83,-18.8 -8.58,-3.3 -24.63,14.24 14.26,-18.22 -8.77,-3.37 -25.7,13.82 15.15,-17.88 -8.54,-3.28 z m 70.66,7.26 c 2.66,1.02 3.54,2.99 1.17,4.9 l -9.99,-3.84 c 2.88,-1.77 6.21,-2.06 8.82,-1.06 z m 2.98,12.46 -8.5,-3.26 c -1.81,0.69 -4.01,0.96 -6.25,0.1 -2.56,-0.99 -3.34,-2.86 -0.79,-5.27 l 18.07,6.95 c 0.75,-0.5 1.46,-1.02 2.08,-1.52 6.61,-5.35 5.44,-10.81 -2.17,-13.73 -7.75,-2.98 -17.44,-1.6 -24.32,3.96 -6.88,5.57 -5.65,11.15 2.01,14.09 6.49,2.49 14.37,1.63 19.87,-1.32 z m 25.54,-10.17 c 2.8,1.08 6.3,0.52 8.29,-1.08 2.02,-1.64 1.7,-3.66 -1.1,-4.74 -2.85,-1.09 -6.36,-0.54 -8.38,1.1 -1.98,1.6 -1.66,3.62 1.19,4.72 z m -6.22,0.3 -24.57,19.87 c -1.29,1.04 -2.48,1.23 -4.26,0.55 l -1.91,-0.74 -5.64,4.56 3.13,1.2 c 5.41,2.08 11.1,2 16.74,-2.56 l 24.49,-19.81 z m 19.46,25.85 c 7.95,-6.59 -8.6,-10.03 -5.14,-12.83 1.05,-0.85 2.7,-0.96 4.57,-0.24 2.24,0.86 2.62,2.17 1.38,3.45 l 7.37,2.84 c 3.76,-3.66 3.14,-7.61 -3.58,-10.19 -6.82,-2.62 -13.63,-1.62 -17.32,1.36 -7.97,6.45 8.74,9.86 5.25,12.69 -0.98,0.79 -2.83,1 -4.88,0.21 -2.19,-0.84 -2.82,-2.28 -1.49,-3.58 l -7.88,-3.03 c -3.83,3.54 -2.39,7.94 4.57,10.61 6.53,2.51 13.38,1.76 17.15,-1.29 z m 5.05,-23.85 -4.59,3.71 15.17,1.15 5.17,-4.19 z m 2.79,21.44 c -6.88,5.57 -5.74,11.11 1.92,14.05 6.53,2.51 14.3,1.74 20.67,-1.8 l -8.5,-3.26 c -2.29,1.02 -4.45,1.26 -6.64,0.41 -2.85,-1.09 -2.94,-3.35 0.68,-6.28 3.61,-2.92 7.44,-3.68 10.28,-2.58 2.2,0.84 2.53,2.13 1.67,3.61 l 8.49,3.26 c 3.82,-4.7 2.19,-8.9 -4.34,-11.41 -7.65,-2.94 -17.38,-1.53 -24.23,4 z m 19,20.25 7.98,3.07 21.7,-17.55 -7.99,-3.07 z m 27.96,-17.83 c 2.8,1.08 6.31,0.52 8.29,-1.08 2.02,-1.64 1.7,-3.66 -1.1,-4.74 -2.84,-1.09 -6.35,-0.54 -8.37,1.1 -1.98,1.6 -1.66,3.62 1.18,4.72 z m 13.96,14.04 c 2.66,1.02 3.54,2.99 1.17,4.9 l -9.98,-3.83 c 2.87,-1.77 6.2,-2.07 8.81,-1.07 z m 2.98,12.47 -8.49,-3.27 c -1.82,0.69 -4.02,0.96 -6.26,0.1 -2.56,-0.99 -3.34,-2.86 -0.78,-5.27 l 18.06,6.95 c 0.75,-0.5 1.46,-1.02 2.08,-1.52 6.61,-5.35 5.44,-10.81 -2.17,-13.73 -7.74,-2.98 -17.43,-1.6 -24.31,3.97 -6.88,5.56 -5.65,11.14 2,14.08 6.49,2.49 14.37,1.63 19.87,-1.31 z"
     fill="#b3b3b3"
     id="path953" />
  <g
     filter="url(#filter0_d_106_202)"
     id="g957"
     transform="translate(99.226562,-323.01801)"
     style="filter:url(#filter0_d_106_202)">
    <path
       d="m 3107.13,1322.71 -4.62,-31.4 c -0.01,-0.12 -0.07,-0.24 -0.16,-0.34 -0.1,-0.1 -0.23,-0.18 -0.39,-0.25 -0.16,-0.06 -0.35,-0.1 -0.55,-0.12 -0.2,-0.02 -0.41,-0.01 -0.62,0.03 l -54.38,7.99 c -0.32,0.04 -0.62,0.14 -0.87,0.28 -0.25,0.13 -0.43,0.31 -0.52,0.49 -0.1,0.19 -0.11,0.38 -0.02,0.56 0.08,0.17 0.26,0.31 0.5,0.41 l 13.53,5.36 -7.26,5.75 c -0.28,0.21 -0.41,0.47 -0.38,0.72 0.04,0.25 0.24,0.46 0.57,0.58 l 29.5,11.71 c 0.33,0.13 0.75,0.16 1.17,0.1 0.43,-0.06 0.82,-0.22 1.1,-0.44 l 7.25,-5.74 13.53,5.36 c 0.24,0.1 0.54,0.14 0.86,0.13 0.32,-0.01 0.64,-0.08 0.92,-0.19 0.28,-0.11 0.52,-0.27 0.67,-0.44 0.15,-0.18 0.21,-0.37 0.17,-0.55 z m -15.3,-6.44 c -0.33,-0.13 -0.75,-0.17 -1.17,-0.11 -0.43,0.07 -0.82,0.22 -1.1,0.44 l -7.25,5.75 -27.05,-10.73 7.26,-5.74 c 0.28,-0.22 0.41,-0.48 0.37,-0.73 -0.03,-0.24 -0.24,-0.45 -0.56,-0.58 l -11.77,-4.67 48.89,-7.19 4.15,28.23 z m -24.69,21 c -0.28,0.22 -0.67,0.38 -1.1,0.44 -0.42,0.06 -0.84,0.03 -1.17,-0.1 l -29.5,-11.7 c -0.32,-0.13 -0.53,-0.34 -0.56,-0.59 -0.04,-0.24 0.09,-0.5 0.37,-0.72 0.27,-0.22 0.67,-0.38 1.09,-0.44 0.43,-0.06 0.85,-0.02 1.17,0.11 l 29.51,11.7 c 0.32,0.13 0.52,0.34 0.56,0.58 0.04,0.25 -0.1,0.51 -0.37,0.72 z m 8.29,-6.56 c -0.27,0.22 -0.67,0.37 -1.09,0.44 -0.43,0.06 -0.85,0.02 -1.17,-0.11 l -29.5,-11.7 c -0.33,-0.13 -0.53,-0.34 -0.57,-0.58 -0.04,-0.25 0.1,-0.51 0.37,-0.73 0.28,-0.22 0.67,-0.37 1.1,-0.44 0.42,-0.06 0.84,-0.02 1.17,0.11 l 29.5,11.7 c 0.33,0.13 0.53,0.34 0.57,0.59 0.03,0.24 -0.1,0.5 -0.38,0.72 z"
       fill="#b3b3b3"
       id="path955" />
  </g>
  <g
     filter="url(#filter1_d_106_202)"
     id="g964"
     transform="translate(99.226562,-323.01801)"
     style="filter:url(#filter1_d_106_202)">
    <mask
       id="path-3-inside-1_106_202"
       fill="#ffffff">
      <path
         d="M 3104.16,2016.03 5333.9,728.691 5735.09,960.323 3505.36,2247.66 Z"
         id="path959" />
    </mask>
    <path
       d="m 3106.76,2017.53 2229.73,-1287.339 -5.19,-3 L 3101.57,2014.53 Z M 5732.5,958.823 3502.76,2246.16 l 5.2,3 2229.73,-1287.337 z"
       fill="#b3b3b3"
       mask="url(#path-3-inside-1_106_202)"
       id="path962" />
  </g>
  <g
     filter="url(#filter2_d_106_202)"
     id="g971"
     transform="translate(99.226562,-323.01801)"
     style="filter:url(#filter2_d_106_202)">
    <mask
       id="path-5-inside-2_106_202"
       fill="#ffffff">
      <path
         d="M 360.604,432.018 3106.66,2017.45 2761.83,2216.54 15.7736,631.106 Z"
         id="path966" />
    </mask>
    <path
       d="m 358.005,433.518 2746.055,1585.432 5.19,-3 L 363.202,430.518 Z M 2764.42,2215.04 18.3717,629.606 l -5.1962,3 L 2759.23,2218.04 Z"
       fill="#b3b3b3"
       mask="url(#path-5-inside-2_106_202)"
       id="path969" />
  </g>
  <g
     filter="url(#filter3_d_106_202)"
     id="g978"
     transform="translate(99.226562,-323.01801)"
     style="filter:url(#filter3_d_106_202)">
    <mask
       id="path-7-inside-3_106_202"
       fill="#ffffff">
      <path
         d="m 3502.76,2246.22 182.11,105.14 -344.83,199.09 -182.11,-105.14 z"
         id="path973" />
    </mask>
    <path
       d="m 3500.16,2247.72 182.11,105.14 5.19,-3 -182.11,-105.14 z m -157.53,301.23 -182.1,-105.14 -5.2,3 182.11,105.14 z"
       fill="#b3b3b3"
       mask="url(#path-7-inside-3_106_202)"
       id="path976" />
  </g>
  <path
     d="m 4441.7366,1208.762 c -30.74,-17.25 -68.29,13.37 -84.26,4.42 -5.75,-3.23 -4.5,-7.14 0.92,-10.21 6.06,-3.45 13.72,-3.92 19.99,-0.85 l 23.86,-14.17 c -18.43,-9.3 -41.66,-6.98 -61.39,4.74 -18.96,11.26 -23.33,25.04 -5.93,34.8 32.32,18.42 68.42,-13.6 85.43,-4.07 5.36,3.01 4.51,7.3 -1.94,11.13 -6.19,3.68 -13.98,4.37 -21.68,0.79 l -23.48,13.95 c 19.23,10.03 44.26,6.5 63.73,-5.07 21.15,-12.57 20.19,-26.81 4.75,-35.46 z m 19.11,-64.09 -54.93,32.64 18.44,10.34 29.66,-17.62 6.85,38.4 17.79,9.97 55.84,-33.17 -18.45,-10.35 -31.21,18.55 -6.2,-38.78 z m 44.77,15.41 c 23.02,12.92 51.73,12.78 69.27,2.36 10.7,-6.36 13.34,-13.66 10.93,-19.63 l 10.33,5.79 22.06,-13.1 -73.01,-40.94 -22.05,13.1 10.34,5.8 c -10.28,-1.3 -22.86,0.43 -33.57,6.79 -17.66,10.5 -17.33,26.92 5.7,39.83 z m 54.03,-31.95 c 11.65,6.53 10.71,14.49 2.32,19.47 -8.25,4.91 -22.27,5.68 -33.91,-0.85 -11.65,-6.53 -10.45,-14.5 -2.2,-19.4 8.39,-4.98 22.15,-5.75 33.79,0.78 z m 76.7,-3.41 22.05,-13.1 -54.42,-30.52 11.86,-7.05 -18.58,-10.42 -11.86,7.05 -0.65,-0.37 c -7.72,-4.33 -7.37,-7.56 1.66,-12.32 l -18.97,-10.64 c -23.1,12.36 -25.29,24.54 -6.18,35.25 l 2.09,1.18 -8,4.75 18.58,10.42 8,-4.75 z m 32.45,-58.41 c -12.56,-7.04 -10.17,-12.7 0.28,-18.9 l 6.06,-3.61 -23.68,-13.28 c -9.67,5.75 -12.3,13.36 -9.61,20.68 l -12.17,-6.83 -22.05,13.1 73,40.95 22.05,-13.11 z m 25.97,-18.61 c 23.03,12.92 51.74,12.79 69.28,2.37 10.7,-6.36 13.34,-13.67 10.92,-19.64 l 10.34,5.8 22.05,-13.11 -73,-40.94001 -22.05,13.1 10.33,5.80001 c -10.28,-1.30001 -22.86,0.43 -33.56,6.79 -17.67,10.5 -17.33,26.92 5.69,39.83 z m 54.04,-31.95 c 11.64,6.53 10.7,14.5 2.32,19.48 -8.25,4.9 -22.27,5.67 -33.92,-0.86 -11.64,-6.53 -10.44,-14.49 -2.19,-19.4 8.38,-4.98 22.14,-5.75 33.79,0.78 z m 3.53,-67.82001 15.44,8.65 17.87,-25.87 -17.41,-9.76 z m 120.62,36.22 21.93,-13.02 -42.65,-23.92 c -19.63,-11.01 -42.23,-10.88 -58.87,-1 -9.67,5.75 -13.09,12.77 -11.32,18.82 l -9.69,-5.43 -22.05,13.1 73,40.95001 22.06,-13.1 -39.64,-22.24001 c -9.95,-5.57 -10.03,-11.87 -1.64,-16.85 8.38,-4.98 19.29,-5.12 29.23,0.46 z m -3.63,-39.99 c 23.15,12.98 52.5,12.17 73.65,-0.4 18.06,-10.72 20.23,-24.25 7.09,-35.94 l -23.47,13.94 c 3.43,4.16 2.95,7.92 -3.11,11.52 -7.86,4.67 -19.56,4.37 -31.73,-2.46 -12.16,-6.82 -13.03,-13.56 -5.16,-18.23 6.06,-3.6 12.94,-3.91 19.85,-2.13 l 23.47,-13.94 c -21.14,-7.54 -43.98,-5.6 -62.03,5.12 -21.15,12.57 -21.59,29.6 1.44,42.52 z m 152.87,-90.83 c -23.16,-12.99 -53.8,-11.4 -74.94,1.16 -21.02,12.49 -23.01,30.29 0.15,43.28 23.15,12.99 53.53,11.56 74.68,-1.01 21.15,-12.56 23.27,-30.44 0.11,-43.43 z m -52.36,31.11 c -12.42,-6.97 -11.22,-14.34 -3.22,-19.09 7.74,-4.6 20.71,-5.66 33.14,1.31 12.3,6.9 10.84,14.57 2.97,19.24 -7.99,4.75 -20.59,5.43 -32.89,-1.46 z m -56.78,-32.6 15.43,8.66 17.87,-25.87 -17.4,-9.76 z m 169.46,7.81 24.25,-14.4 -35.63,-33.54 58.71,19.82 24.37,-14.48 -53.52,-52.51 -20.77,12.34 41.88,35.1 -64.19,-21.85 -23.34,13.87 40.08,36.48 -62.39,-23.23 -22.05,13.1 z"
     fill="#b3b3b3"
     id="path980" />
  <g
     filter="url(#filter4_d_106_202)"
     id="g987"
     transform="translate(99.226562,-323.01801)"
     style="filter:url(#filter4_d_106_202)">
    <mask
       id="path-10-inside-4_106_202"
       fill="#ffffff">
      <path
         d="m 2611.53,2303.29 152.96,-88.32 401.2,231.64 -152.97,88.31 z"
         id="path982" />
    </mask>
    <path
       d="m 2614.12,2304.79 152.97,-88.32 -5.19,-3 -152.97,88.32 z m 548.97,140.32 -152.96,88.31 5.19,3 152.97,-88.31 z"
       fill="#b3b3b3"
       mask="url(#path-10-inside-4_106_202)"
       id="path985" />
  </g>
  <path
     d="m 957.90056,545.71499 24.047,14.147 -73.74,41.773 22.107,13.007 73.74004,-41.773 24.048,14.147 17.88,-10.129 -70.20204,-41.301 z m 63.46804,83.459 c 12.529,-7.098 22.26,-5.593 32.732,0.568 l 6.076,3.575 23.623,-13.382 c -9.696,-5.705 -22.803,-7.387 -35.546,-5.991 l 12.138,-6.876 -22.108,-13.007 -72.82604,41.256 22.108,13.006 z m 31.537,15.389 c -22.971,13.012 -23.496,29.584 -5.913,39.929 10.73,6.31 23.318,7.99 33.721,6.73 l -10.311,5.84 22.108,13 72.826,-41.253 -22.11,-13.006 -10.31,5.841 c 2.52,-5.905 -0.15,-13.202 -10.88,-19.515 -17.71,-10.421 -46.161,-10.578 -69.131,2.434 z m 53.911,31.867 c -11.616,6.582 -25.381,5.872 -33.784,0.922 -8.275,-4.866 -9.247,-12.974 2.368,-19.554 11.616,-6.581 25.376,-5.718 33.656,-0.85 8.4,4.944 9.38,12.902 -2.24,19.482 z m 1.69,43.042 22.11,13.01 30.54,-17.3 -8.57,30.23 27.41,16.12 6.03,-38.35 66.54,-3.05 -27.28,-16.05 -51.47,3.93 53.38,-30.24 -22.11,-13.009 z m 108.73,34.73 c -18.93,10.72 -14.85,20.5 0.15,29.33 l 11.25,6.62 18.92,-10.73 -7.89,-4.63 c -4.91,-2.9 -4.89,-5 -0.59,-7.43 l 29.24,-16.57 14.48,8.52 18.53,-10.5 -14.48,-8.51 17.75,-10.06 -22.11,-13.01 -17.75,10.06 -8.79,-5.17 -18.53,10.5 8.79,5.17 z m 201.81,42.17 -56.77,32.16 19.8,-53.92 -22.11,-13 -91.62,51.9 22.1,13 56.52,-32.01 -19.54,53.77 22.11,13 91.62,-51.9 z m -21.34,51.05 c -22.97,13.01 -23.49,29.58 -5.91,39.92 10.73,6.32 23.32,7.99 33.72,6.73 l -10.31,5.84 22.11,13.01 72.82,-41.26 -22.1,-13 -10.31,5.84 c 2.51,-5.91 -0.16,-13.21 -10.89,-19.52 -17.71,-10.42 -46.16,-10.58 -69.13,2.44 z m 53.91,31.86 c -11.61,6.58 -25.38,5.87 -33.78,0.93 -8.28,-4.87 -9.25,-12.98 2.37,-19.56 11.61,-6.58 25.38,-5.72 33.65,-0.85 8.4,4.94 9.38,12.9 -2.24,19.48 z m 33.84,19.76 c -22.97,13.01 -23.5,29.58 -5.78,40 10.6,6.24 23.05,7.99 33.72,6.58 l -10.44,5.91 22.1,13.01 96.58,-54.71 -22.1,-13.01 -33.81,19.15 c 2.26,-6.36 -1.57,-13.74 -11.14,-19.37 -17.71,-10.42 -46.16,-10.57 -69.13,2.44 z m 53.91,31.87 c -11.62,6.58 -25.38,5.86 -33.78,0.92 -8.28,-4.87 -9.25,-12.98 2.36,-19.56 11.62,-6.58 25.38,-5.71 33.66,-0.85 8.4,4.95 9.38,12.91 -2.24,19.49 z m 13.84,50.19 24.31,14.3 59.01,-19.84 -35.87,33.45001 24.43,14.38 92.35,-29.77001 -20.81,-12.25 -61.9,23.42001 39.53,-36.57001 -23.4,-13.77 -64.23,22.35 41.86,-35.51 -22.1,-13.01 z m 99.84,58.73001 22.1,13.01 72.83,-41.25 -22.11,-13.01001 z m 91.51,-39 c 7.76,4.57 18.41,4.65 25.07,0.88 6.78,-3.84001 6.83,-9.99001 -0.92,-14.55001 -7.89,-4.64 -18.54,-4.73 -25.33,-0.89 -6.65,3.77 -6.7,9.92 1.18,14.56001 z m 26.33,83.92 c 26.75,-15.61 -20.51,-33.92 -8.9,-40.5 3.53,-2 8.46,-1.51 13.63,1.53 6.21,3.65 6.69,7.71 2.38,10.9 l 20.43,12.02 c 12.93,-8.97 13.03,-20.97 -5.59,-31.93 -18.87,-11.1 -39.52,-11.5 -51.92,-4.47 -26.76,15.15 21.03,33.47 9.28,40.13 -3.26,1.84 -8.85,1.57 -14.53,-1.77 -6.08,-3.58 -7.21,-8.16 -2.64,-11.35 l -21.85,-12.85 c -13.06,8.59 -10.96,22.33 8.3,33.66 18.1,10.65 38.75,11.8 51.41,4.63 z m 26.66,-68.11 -15.4,8.72 44.34,10.86 17.36,-9.83 z m -34.28,88.04 22.11,13.01 96.58,-54.71 -22.11,-13.01 z m 70.27,-0.86 c -22.97,13.02 -23.49,29.59 -5.91,39.93 10.73,6.32 23.32,7.99 33.72,6.73 l -10.31,5.84 22.11,13.01 72.83,-41.26 -22.11,-13.01 -10.31,5.85 c 2.51,-5.91 -0.15,-13.21 -10.88,-19.52 -17.72,-10.42 -46.16,-10.58 -69.14,2.43 z m 53.92,31.87 c -11.62,6.58 -25.38,5.87 -33.79,0.93 -8.27,-4.87 -9.25,-12.98 2.37,-19.56 11.62,-6.58 25.38,-5.72 33.65,-0.85 8.41,4.94 9.38,12.9 -2.23,19.48 z m 117.37,3.49 -15.4,8.73 44.34,10.86 17.35,-9.83 z m -65.91,68.84 21.98,12.93 42.54,-24.1 c 19.58,-11.09 19.95,-24.14 3.27,-33.95 -9.7,-5.71 -21.76,-7.83 -32.29,-6.94 l 9.66,-5.47 -22.11,-13.01 -72.83,41.26 22.11,13 39.55,-22.4 c 9.92,-5.62 20.83,-5.53 29.23,-0.59 8.41,4.95 8.35,11.25 -1.57,16.87 z m 117.05,44.45 c 26.76,-15.61 -20.51,-33.92 -8.89,-40.5 3.52,-2 8.45,-1.51 13.63,1.53 6.2,3.65 6.69,7.71 2.37,10.9 l 20.43,12.02 c 12.94,-8.97 13.03,-20.97 -5.58,-31.93 -18.88,-11.1 -39.53,-11.49 -51.93,-4.47 -26.75,15.16 21.03,33.47 9.29,40.13 -3.27,1.84 -8.85,1.57 -14.54,-1.77 -6.08,-3.58 -7.21,-8.16 -2.64,-11.35 l -21.84,-12.85 c -13.07,8.59 -10.97,22.33 8.29,33.67 18.1,10.64 38.75,11.79 51.41,4.62 z m -7.62,19.93 22.11,13.01 30.54,-17.3 -8.56,30.23 27.41,16.12 6.03,-38.35 66.53,-3.05 -27.27,-16.05 -51.48,3.92 53.38,-30.23 -22.11,-13.01 z m 79.92,47.02 22.11,13.01 72.83,-41.26 -22.11,-13.01 z m 91.52,-39 c 7.75,4.56 18.41,4.65 25.06,0.88 6.79,-3.85 6.84,-10 -0.92,-14.56 -7.89,-4.64 -18.54,-4.73 -25.32,-0.88 -6.66,3.77 -6.71,9.92 1.18,14.56 z"
     fill="#b3b3b3"
     id="path989" />
  <defs
     id="defs1076">
    <filter
       id="filter0_d_106_202"
       x="3032.8"
       y="1289.59"
       width="76.339798"
       height="51.147499"
       filterUnits="userSpaceOnUse"
       color-interpolation-filters="sRGB">
      <feFlood
         flood-opacity="0"
         result="BackgroundImageFix"
         id="feFlood991" />
      <feColorMatrix
         in="SourceAlpha"
         type="matrix"
         values="0 0 0 0 0 0 0 0 0 0 0 0 0 0 0 0 0 0 127 0"
         result="hardAlpha"
         id="feColorMatrix993" />
      <feOffset
         dy="1"
         id="feOffset995" />
      <feGaussianBlur
         stdDeviation="0.034830171"
         id="feGaussianBlur997" />
      <feComposite
         in2="hardAlpha"
         operator="out"
         id="feComposite999" />
      <feColorMatrix
         type="matrix"
         values="0 0 0 0 0 0 0 0 0 0 0 0 0 0 0 0 0 0 0.3 0"
         id="feColorMatrix1001" />
      <feBlend
         mode="normal"
         in2="BackgroundImageFix"
         result="effect1_dropShadow_106_202"
         id="feBlend1003" />
      <feBlend
         mode="normal"
         in="SourceGraphic"
         in2="effect1_dropShadow_106_202"
         result="shape"
         id="feBlend1005" />
    </filter>
    <filter
       id="filter1_d_106_202"
       x="3094.1599"
       y="717.69098"
       width="2660.9299"
       height="1548.97"
       filterUnits="userSpaceOnUse"
       color-interpolation-filters="sRGB">
      <feFlood
         flood-opacity="0"
         result="BackgroundImageFix"
         id="feFlood1008" />
      <feColorMatrix
         in="SourceAlpha"
         type="matrix"
         values="0 0 0 0 0 0 0 0 0 0 0 0 0 0 0 0 0 0 127 0"
         result="hardAlpha"
         id="feColorMatrix1010" />
      <feOffset
         dx="5"
         dy="4"
         id="feOffset1012" />
      <feGaussianBlur
         stdDeviation="1039.5222"
         id="feGaussianBlur1014" />
      <feComposite
         in2="hardAlpha"
         operator="out"
         id="feComposite1016" />
      <feColorMatrix
         type="matrix"
         values="0 0 0 0 0 0 0 0 0 0 0 0 0 0 0 0 0 0 0.4 0"
         id="feColorMatrix1018" />
      <feBlend
         mode="normal"
         in2="BackgroundImageFix"
         result="effect1_dropShadow_106_202"
         id="feBlend1020" />
      <feBlend
         mode="normal"
         in="SourceGraphic"
         in2="effect1_dropShadow_106_202"
         result="shape"
         id="feBlend1022" />
    </filter>
    <filter
       id="filter2_d_106_202"
       x="0.77343798"
       y="423.01801"
       width="3120.8799"
       height="1814.52"
       filterUnits="userSpaceOnUse"
       color-interpolation-filters="sRGB">
      <feFlood
         flood-opacity="0"
         result="BackgroundImageFix"
         id="feFlood1025" />
      <feColorMatrix
         in="SourceAlpha"
         type="matrix"
         values="0 0 0 0 0 0 0 0 0 0 0 0 0 0 0 0 0 0 127 0"
         result="hardAlpha"
         id="feColorMatrix1027" />
      <feOffset
         dy="6"
         id="feOffset1029" />
      <feGaussianBlur
         stdDeviation="1220.8991"
         id="feGaussianBlur1031" />
      <feComposite
         in2="hardAlpha"
         operator="out"
         id="feComposite1033" />
      <feColorMatrix
         type="matrix"
         values="0 0 0 0 0 0 0 0 0 0 0 0 0 0 0 0 0 0 0.4 0"
         id="feColorMatrix1035" />
      <feBlend
         mode="normal"
         in2="BackgroundImageFix"
         result="effect1_dropShadow_106_202"
         id="feBlend1037" />
      <feBlend
         mode="normal"
         in="SourceGraphic"
         in2="effect1_dropShadow_106_202"
         result="shape"
         id="feBlend1039" />
    </filter>
    <filter
       id="filter3_d_106_202"
       x="3140.9299"
       y="2235.22"
       width="556.93903"
       height="334.229"
       filterUnits="userSpaceOnUse"
       color-interpolation-filters="sRGB">
      <feFlood
         flood-opacity="0"
         result="BackgroundImageFix"
         id="feFlood1042" />
      <feColorMatrix
         in="SourceAlpha"
         type="matrix"
         values="0 0 0 0 0 0 0 0 0 0 0 0 0 0 0 0 0 0 127 0"
         result="hardAlpha"
         id="feColorMatrix1044" />
      <feOffset
         dx="-2"
         dy="4"
         id="feOffset1046" />
      <feGaussianBlur
         stdDeviation="209.84"
         id="feGaussianBlur1048" />
      <feComposite
         in2="hardAlpha"
         operator="out"
         id="feComposite1050" />
      <feColorMatrix
         type="matrix"
         values="0 0 0 0 0 0 0 0 0 0 0 0 0 0 0 0 0 0 0.4 0"
         id="feColorMatrix1052" />
      <feBlend
         mode="normal"
         in2="BackgroundImageFix"
         result="effect1_dropShadow_106_202"
         id="feBlend1054" />
      <feBlend
         mode="normal"
         in="SourceGraphic"
         in2="effect1_dropShadow_106_202"
         result="shape"
         id="feBlend1056" />
    </filter>
    <filter
       id="filter4_d_106_202"
       x="2601.53"
       y="2203.97"
       width="584.16602"
       height="349.94699"
       filterUnits="userSpaceOnUse"
       color-interpolation-filters="sRGB">
      <feFlood
         flood-opacity="0"
         result="BackgroundImageFix"
         id="feFlood1059" />
      <feColorMatrix
         in="SourceAlpha"
         type="matrix"
         values="0 0 0 0 0 0 0 0 0 0 0 0 0 0 0 0 0 0 127 0"
         result="hardAlpha"
         id="feColorMatrix1061" />
      <feOffset
         dx="5"
         dy="4"
         id="feOffset1063" />
      <feGaussianBlur
         stdDeviation="220.5775"
         id="feGaussianBlur1065" />
      <feComposite
         in2="hardAlpha"
         operator="out"
         id="feComposite1067" />
      <feColorMatrix
         type="matrix"
         values="0 0 0 0 0 0 0 0 0 0 0 0 0 0 0 0 0 0 0.4 0"
         id="feColorMatrix1069" />
      <feBlend
         mode="normal"
         in2="BackgroundImageFix"
         result="effect1_dropShadow_106_202"
         id="feBlend1071" />
      <feBlend
         mode="normal"
         in="SourceGraphic"
         in2="effect1_dropShadow_106_202"
         result="shape"
         id="feBlend1073" />
    </filter>
  </defs>
</svg>
